<svg version="1.1" xmlns="http://www.w3.org/2000/svg" xmlns:xlink="http://www.w3.org/1999/xlink" width="24px" height="24px" viewBox="0,0,256,256"><g transform="translate(-25.6,-25.6) scale(1.2,1.2)"><g fill="#339af0" fill-rule="nonzero" stroke="none" stroke-width="1" stroke-linecap="butt" stroke-linejoin="miter" stroke-miterlimit="10" stroke-dasharray="" stroke-dashoffset="0" font-family="none" font-weight="none" font-size="none" text-anchor="none" style="mix-blend-mode: normal"><g transform="scale(10.66667,10.66667)"><path d="M10.75,2.88672c-0.32725,0 -0.6553,0.05733 -0.9668,0.17383l-6,2.25c-1.073,0.403 -1.7832,1.43017 -1.7832,2.57617v7.61328c0,0.414 0.336,0.75 0.75,0.75c0.414,0 0.75,-0.336 0.75,-0.75v-7.61328c0,-0.521 0.32255,-0.98692 0.81055,-1.16992l6,-2.25c0.283,-0.107 0.59591,-0.107 0.87891,0l7.29688,2.73438c0.387,0.146 0.81984,-0.0495 0.96484,-0.4375c0.146,-0.387 -0.0495,-0.81984 -0.4375,-0.96484l-7.29687,-2.73828c-0.3115,-0.1165 -0.63955,-0.17383 -0.9668,-0.17383zM7.25,7.75c-1.519,0 -2.75,1.231 -2.75,2.75v8c0,1.519 1.231,2.75 2.75,2.75h12c1.519,0 2.75,-1.231 2.75,-2.75v-8c0,-1.519 -1.231,-2.75 -2.75,-2.75zM7.25,9.25h12c0.69,0 1.25,0.56 1.25,1.25v8c0,0.69 -0.56,1.25 -1.25,1.25h-12c-0.69,0 -1.25,-0.56 -1.25,-1.25v-8c0,-0.69 0.56,-1.25 1.25,-1.25zM8.13477,10.76172c-0.18863,0.035 -0.36347,0.142 -0.48047,0.3125c-0.235,0.342 -0.14764,0.80897 0.19336,1.04297c0,0 1.86227,1.2802 3.32227,2.2832c1.289,0.885 2.99244,0.87647 4.27344,-0.01953l3.23633,-2.26758c0.339,-0.237 0.42159,-0.70397 0.18359,-1.04297c-0.237,-0.339 -0.70397,-0.42159 -1.04297,-0.18359l-3.23828,2.26563c-0.769,0.538 -1.79045,0.54077 -2.56445,0.00976c-1.459,-1.002 -3.32227,-2.2793 -3.32227,-2.2793c-0.1705,-0.1175 -0.37192,-0.15609 -0.56055,-0.12109z"></path></g></g></g></svg>
